<svg width="1805" height="1671" viewBox="0 0 1805 1671" fill="none" xmlns="http://www.w3.org/2000/svg">
<path d="M1602.08 783.192C1602.08 1215.74 1276.78 1566.38 875.498 1566.38C474.216 1566.38 148.912 1215.74 148.912 783.192C148.912 350.647 474.216 0 875.498 0C1276.78 0 1602.08 350.647 1602.08 783.192Z" fill="url(#paint0_linear_4400_3337)"/>
<path d="M1033.49 276.271H1020.82L1014.06 370.052C1014.06 370.052 1024.48 383.57 1036.02 383.57C1045.32 383.57 1054.72 384.2 1063.9 381.035C1088.4 372.586 1099.95 358.777 1121.35 342.171C1135.21 331.418 1152.93 315.273 1163.57 305.351C1166.93 302.215 1164.67 296.623 1160.07 296.636C1139.7 296.691 1099.62 296.45 1074.04 294.014C1056.83 292.375 1033.49 276.271 1033.49 276.271Z" fill="#2685FD"/>
<path d="M1033.75 275.426L1033.97 275.576L1033.97 275.578C1033.97 275.579 1033.98 275.582 1033.98 275.586C1033.99 275.593 1034.01 275.604 1034.03 275.619C1034.08 275.649 1034.14 275.694 1034.23 275.753C1034.4 275.869 1034.66 276.041 1034.99 276.261C1035.66 276.701 1036.63 277.332 1037.85 278.096C1040.3 279.623 1043.74 281.677 1047.71 283.78C1055.68 288.003 1065.69 292.369 1074.12 293.171C1099.66 295.603 1139.69 295.845 1160.07 295.79C1165.41 295.776 1168.08 302.296 1164.14 305.968C1153.5 315.89 1135.76 332.058 1121.87 342.837C1100.61 359.34 1088.86 373.324 1064.18 381.833C1054.83 385.057 1045.23 384.414 1036.02 384.414C1029.95 384.414 1024.26 380.872 1020.17 377.458C1018.11 375.738 1016.42 374.02 1015.24 372.732C1014.65 372.088 1014.19 371.55 1013.88 371.171C1013.72 370.982 1013.6 370.834 1013.52 370.731C1013.48 370.68 1013.44 370.639 1013.42 370.612L1013.39 370.571L1013.39 370.567L1013.19 370.312L1019.97 276.21L1020.03 275.426H1033.75ZM1014.92 369.78C1014.99 369.864 1015.08 369.97 1015.18 370.092C1015.48 370.453 1015.92 370.971 1016.49 371.594C1017.63 372.841 1019.26 374.502 1021.25 376.161C1025.26 379.507 1030.56 382.724 1036.02 382.724C1045.4 382.724 1054.62 383.342 1063.63 380.236C1087.95 371.848 1099.3 358.213 1120.84 341.504C1134.66 330.777 1152.35 314.654 1162.99 304.732C1165.78 302.134 1163.92 297.469 1160.07 297.48C1139.7 297.535 1099.59 297.295 1073.96 294.854C1065.18 294.018 1054.92 289.512 1046.92 285.274C1042.9 283.147 1039.43 281.073 1036.96 279.53C1035.72 278.758 1034.74 278.119 1034.06 277.672C1033.72 277.448 1033.46 277.272 1033.28 277.152C1033.26 277.139 1033.24 277.127 1033.23 277.116H1021.6L1014.92 369.78Z" fill="#2685FD"/>
<path d="M970.123 233.184C934.702 233.183 880.567 247.546 880.567 247.546V388.639C880.567 388.639 893.433 388.347 900.844 385.26C931.259 372.587 948.563 358.224 981.951 358.224C1001.38 358.224 1018.28 375.966 1018.28 375.966L1033.49 274.582C1033.49 274.582 1027.57 233.184 970.123 233.184Z" fill="#358DFE"/>
<path d="M887.326 523.818L863.67 523.818L863.67 233.184L887.326 233.184L887.326 523.818Z" fill="#005EF3"/>
<path d="M892.395 226.425C892.395 235.757 884.83 243.322 875.498 243.322C866.166 243.322 858.601 235.757 858.601 226.425C858.601 217.093 866.166 209.527 875.498 209.527C884.83 209.527 892.395 217.093 892.395 226.425Z" fill="#005EF3"/>
<path d="M694.066 677.087L713.283 676.738L716.262 676.809C737.424 677.313 758.233 671.324 775.889 659.648C792.384 648.74 811.657 642.779 831.43 642.47L844.355 642.268C913.837 641.183 974.699 688.628 990.601 756.274L1008.51 832.475C1013.83 855.109 1014.17 878.63 1009.49 901.407C997.719 958.757 1018.14 1017.97 1062.77 1055.86L1389.2 1333.06C1504.18 1430.69 1443.33 1618.61 1292.94 1630.32L801.15 1668.61H1.69259C0.341067 1668.61 -0.463514 1667.1 0.28902 1665.98L101.599 1514.85L275.454 1272.55C283.958 1260.7 290.241 1247.41 293.999 1233.31C296.954 1222.23 301.473 1211.63 307.42 1201.83L433.252 994.414C445.667 973.949 463.37 957.211 484.498 945.961C505.94 934.544 523.848 917.478 536.284 896.611L652.863 700.995C661.539 686.437 677.121 677.396 694.066 677.087Z" fill="url(#paint1_linear_4400_3337)"/>
<path d="M1064.13 719.458L1049.54 695.325C1038.93 681.92 1025.96 670.565 1011.27 661.82L984.003 645.592C969.942 637.223 953.882 632.805 937.518 632.805C884.503 632.805 842.742 677.997 846.92 730.848L908.816 1513.8C915.763 1601.68 989.106 1669.46 1077.26 1669.46H1803.31C1804.81 1669.46 1805.57 1667.64 1804.5 1666.57L1367.77 1229.84C1350.16 1212.23 1336.65 1190.93 1328.23 1167.48L1225.94 882.743C1219.35 864.39 1209.63 847.316 1197.21 832.278L1149.01 773.9C1132.72 754.181 1110.35 740.426 1085.41 734.793C1076.53 732.788 1068.84 727.25 1064.13 719.458Z" fill="url(#paint2_linear_4400_3337)"/>
<path d="M676.222 866.195L725.112 761.226L751.308 714.317C757.997 702.337 766.984 691.795 777.753 683.293L791.544 672.406C803.157 663.238 817.783 658.754 832.539 659.839L833.91 659.94C854.38 661.445 872.447 673.876 881.169 692.457L882.546 695.391C885.138 700.914 888.901 705.808 893.573 709.732C902.521 717.248 907.94 728.146 908.533 739.817L909.052 750.012C909.757 763.887 906.034 777.627 898.42 789.248L878.033 820.367L847.617 857.541L813.823 913.302L792.925 942.036C779.988 959.825 771.226 980.302 767.291 1001.94C764.535 1017.1 759.402 1031.73 752.083 1045.29L725.574 1094.4C716.324 1111.53 704.18 1126.94 689.68 1139.94L645.931 1179.16C640.719 1183.84 635.021 1187.94 628.934 1191.4L578.31 1220.16C551.399 1235.45 517.213 1222.58 507.075 1193.33C505.435 1188.6 503.087 1184.15 500.111 1180.12L495.847 1174.35C467.758 1136.35 471.674 1083.22 504.601 1049.33L542.62 1017.22L587.181 979.869C595.753 972.683 603.591 964.664 610.579 955.929L654.993 900.411C663.408 889.892 670.535 878.406 676.222 866.195Z" fill="url(#paint3_linear_4400_3337)"/>
<path d="M963.057 878.371L919.956 825.363C916.884 821.583 915.206 816.861 915.206 811.991C915.206 800.285 905.717 790.795 894.01 790.795H886.197C878.283 790.795 870.715 794.015 865.273 799.761C845.302 820.844 816.422 852.015 814.667 856.695C813.319 860.29 791.355 876.657 773.309 893.68C757.625 908.475 750.905 929.379 748.489 950.804L739.474 1030.74C739.474 1055.72 733.5 1080.34 722.05 1102.55L628.112 1284.73C610.627 1318.64 611.52 1359.1 630.483 1392.21C643.07 1414.18 662.704 1431.27 686.206 1440.7L915.206 1532.59L1056.37 1612.95C1075.84 1624.04 1097.32 1631.14 1119.57 1633.85L1208.68 1644.69C1209.8 1644.82 1210.73 1643.85 1210.56 1642.74L1149.51 1259C1147.08 1243.77 1142.58 1228.93 1136.13 1214.92L1109.52 1157.09C1104.47 1146.11 1098.25 1135.7 1090.98 1126.05L1015.15 1025.41C1011.05 1019.96 1007.37 1014.2 1004.16 1008.18L1002.18 1004.45C993.335 987.872 988.71 969.372 988.71 950.584C988.71 924.281 979.651 898.78 963.057 878.371Z" fill="url(#paint4_linear_4400_3337)"/>
<path d="M889.25 490.023H867.155C866.585 490.023 866.077 490.383 865.886 490.92C857.261 515.176 855.448 541.374 860.669 566.583L879.801 658.965C881.384 666.608 885.703 673.409 891.946 678.092L897.9 682.557C902.895 686.304 909.451 687.257 915.307 685.088C923.197 682.166 932.064 684.976 936.831 691.909L943.198 701.17C945.908 705.112 949.447 708.413 953.567 710.843L979.354 726.051C979.953 726.404 980.472 726.877 980.879 727.441L1039.56 808.638C1040.79 810.334 1043.39 808.729 1042.43 806.871L970.759 668.497C969.937 666.911 971.787 665.283 973.256 666.3L1014.12 694.589C1019.16 698.076 1025.83 698.046 1030.84 694.513L1035.54 691.197C1036.37 690.606 1037.44 690.448 1038.41 690.772C1041.29 691.731 1043.78 688.549 1042.16 685.988L981.107 589.718L908.08 499.036C905.549 495.894 902.273 493.435 898.549 491.883C895.602 490.656 892.442 490.023 889.25 490.023Z" fill="#80B6FD"/>
<path d="M918.915 619.359L882.686 509.988C880.55 503.54 872.371 501.601 867.568 506.404C866.669 507.303 865.968 508.38 865.509 509.566L804.667 666.915C801.181 675.932 811.63 683.915 819.413 678.18C822.657 675.79 827.043 675.663 830.419 677.861L861.135 697.863C906.318 721.513 905.777 786.371 860.207 809.265L801.236 838.892C795.56 841.744 789.641 843.985 783.672 846.159C761.663 854.174 706.719 879.019 702.3 928.511C693.852 1023.14 897.694 1027.33 901.689 1115.23C906.218 1214.87 624.75 1216.04 564.757 1380.3C549.931 1420.89 570.162 1463.9 599.874 1495.29L763.476 1668.09C763.795 1668.42 764.238 1668.62 764.703 1668.62H1289.75C1291.54 1668.62 1292.1 1666.19 1290.49 1665.41L943.608 1496.74C933.709 1491.93 923.342 1488.14 912.916 1484.62C878.376 1472.94 798.827 1440.19 793.546 1384.74C786.787 1313.77 957 1261.39 998.004 1198.87C1083.34 1068.76 928.694 1022.91 797.77 963.996C749.666 942.349 759.687 899.759 805.618 873.817L899.902 820.564C909.92 814.906 918.228 806.652 923.952 796.672C938.257 771.729 934.178 740.308 913.977 719.846L887.714 693.241C885.039 690.531 884.669 686.301 886.835 683.168L915.767 641.309C920.203 634.891 921.368 626.764 918.915 619.359Z" fill="url(#paint5_linear_4400_3337)"/>
<path d="M719.08 664.633L707.483 675.816C706.924 676.355 706.816 677.212 707.225 677.872C713.979 688.782 717.98 701.17 718.883 713.97L722.334 762.848C722.433 764.251 724.102 764.926 725.148 763.986L789.984 705.744C811.137 686.742 826.923 662.514 835.761 635.488L878.39 505.13C879.735 501.018 878.758 496.5 875.835 493.311C873.003 490.222 868.764 488.837 864.654 489.659L856.169 491.356C849.574 492.675 843.696 496.379 839.661 501.76L802.839 550.855L739.066 641.325C733.156 649.709 726.464 657.513 719.08 664.633Z" fill="#DBE8FD"/>
<path d="M1657 479.884H1379.04C1379.04 479.884 1379.04 446.937 1411.14 436.796C1424.91 432.447 1446.63 440.175 1446.63 440.175C1446.63 440.175 1455.08 368.369 1526.05 368.361C1600.4 368.353 1602.93 440.175 1602.93 440.175C1602.93 440.175 1621.52 435.445 1630.81 436.796C1660.38 441.094 1657 479.884 1657 479.884Z" fill="#D1E3FC"/>
<path d="M424.213 917.525H126.945C126.945 917.525 126.945 880.086 161.28 868.561C176.002 863.62 199.229 872.401 199.229 872.401C199.229 872.401 208.265 790.804 284.163 790.795C363.686 790.785 366.386 872.401 366.386 872.401C366.386 872.401 386.264 867.026 396.203 868.561C427.828 873.446 424.213 917.525 424.213 917.525Z" fill="#E0EBFC"/>
<path d="M637.145 454.538H398.993C398.993 454.538 398.993 429.079 426.5 421.242C438.294 417.882 456.902 423.854 456.902 423.854C456.902 423.854 464.141 368.368 524.946 368.361C588.654 368.355 590.818 423.854 590.818 423.854C590.818 423.854 606.743 420.198 614.705 421.242C640.04 424.564 637.145 454.538 637.145 454.538Z" fill="#FDFDFE"/>
<g filter="url(#filter0_d_4400_3337)">
<path d="M1132.34 777.277C1132.34 732.483 1168.65 696.17 1213.44 696.17H1635.88C1680.67 696.17 1716.99 732.483 1716.99 777.277V1387.27C1716.99 1432.07 1680.67 1468.38 1635.88 1468.38H1213.44C1168.65 1468.38 1132.34 1432.07 1132.34 1387.27V777.277Z" fill="#FEFDFD"/>
</g>
<path d="M1326.66 862.61C1326.66 892.939 1302.07 917.526 1271.74 917.526C1241.41 917.526 1216.82 892.939 1216.82 862.61C1216.82 832.28 1241.41 807.693 1271.74 807.693C1302.07 807.693 1326.66 832.28 1326.66 862.61Z" fill="#2E89FD"/>
<path d="M1292.85 841.582C1295.13 839.245 1298.88 839.199 1301.22 841.48C1303.55 843.761 1303.6 847.505 1301.32 849.843L1263.44 888.669L1240.62 866.889C1238.26 864.633 1238.17 860.888 1240.43 858.526C1242.68 856.163 1246.43 856.076 1248.79 858.331L1263.14 872.034L1292.85 841.582Z" fill="white"/>
<path d="M1314.83 1073.83C1314.83 1050.03 1295.54 1030.74 1271.74 1030.74C1247.94 1030.74 1228.65 1050.03 1228.65 1073.83C1228.65 1097.62 1247.94 1116.91 1271.74 1116.91V1128.74C1241.41 1128.74 1216.82 1104.16 1216.82 1073.83C1216.82 1043.5 1241.41 1018.91 1271.74 1018.91C1302.07 1018.91 1326.66 1043.5 1326.66 1073.83C1326.66 1104.16 1302.07 1128.74 1271.74 1128.74V1116.91C1295.54 1116.91 1314.83 1097.62 1314.83 1073.83Z" fill="#C3D9FC"/>
<path d="M1314.83 1296.87C1314.83 1273.07 1295.54 1253.78 1271.74 1253.78C1247.94 1253.78 1228.65 1273.07 1228.65 1296.87C1228.65 1320.67 1247.94 1339.96 1271.74 1339.96V1351.79C1241.41 1351.79 1216.82 1327.2 1216.82 1296.87C1216.82 1266.54 1241.41 1241.96 1271.74 1241.96C1302.07 1241.96 1326.66 1266.54 1326.66 1296.87C1326.66 1327.2 1302.07 1351.79 1271.74 1351.79V1339.96C1295.54 1339.96 1314.83 1320.67 1314.83 1296.87Z" fill="#C3D9FC"/>
<path d="M1377.35 858.385C1377.35 850.919 1383.4 844.867 1390.87 844.867H1622.36C1629.83 844.867 1635.88 850.919 1635.88 858.385V858.385C1635.88 865.851 1629.83 871.903 1622.36 871.903H1390.87C1383.4 871.903 1377.35 865.851 1377.35 858.385V858.385Z" fill="#C3D9FC"/>
<path d="M1377.35 1072.98C1377.35 1065.52 1383.4 1059.46 1390.87 1059.46H1622.36C1629.83 1059.46 1635.88 1065.52 1635.88 1072.98V1072.98C1635.88 1080.45 1629.83 1086.5 1622.36 1086.5H1390.87C1383.4 1086.5 1377.35 1080.45 1377.35 1072.98V1072.98Z" fill="#C3D9FC"/>
<path d="M1377.35 1296.03C1377.35 1288.56 1383.4 1282.51 1390.87 1282.51H1622.36C1629.83 1282.51 1635.88 1288.56 1635.88 1296.03V1296.03C1635.88 1303.49 1629.83 1309.54 1622.36 1309.54H1390.87C1383.4 1309.54 1377.35 1303.49 1377.35 1296.03V1296.03Z" fill="#C3D9FC"/>
<path d="M1622.36 1307.85V1309.54H1390.87V1307.85H1622.36ZM1634.19 1296.03C1634.19 1289.49 1628.89 1284.2 1622.36 1284.2H1390.87C1384.33 1284.2 1379.04 1289.49 1379.04 1296.03C1379.04 1302.56 1384.33 1307.85 1390.87 1307.85V1309.54L1390.17 1309.53C1383.03 1309.16 1377.35 1303.26 1377.35 1296.03C1377.35 1288.56 1383.4 1282.51 1390.87 1282.51H1622.36C1629.83 1282.51 1635.88 1288.56 1635.88 1296.03C1635.88 1303.26 1630.2 1309.16 1623.06 1309.53L1622.36 1309.54V1307.85C1628.89 1307.85 1634.19 1302.56 1634.19 1296.03Z" fill="#C3D9FC"/>
<path d="M477.596 1276.57C457.976 1300.84 393.496 1351.24 370.13 1332.35C346.764 1313.47 373.361 1232.46 392.981 1208.18C411.562 1185.19 445.688 1143.59 492.311 1151.46C497.517 1152.33 502.16 1155.4 504.919 1159.9C530.282 1201.27 496.203 1253.54 477.596 1276.57Z" fill="#78B0FE"/>
<path d="M323.036 1128.3C332.774 1173.67 335.157 1239.16 298.88 1246.95C262.602 1254.73 223.214 1181.64 216.665 1151.13C210.485 1122.33 199.637 1069.93 234.578 1038.57C238.769 1034.81 244.425 1033.01 250.003 1033.79C297.729 1040.43 316.848 1099.46 323.036 1128.3Z" fill="#78B0FE"/>
<path d="M231.667 1285.56C257.512 1315.62 277.195 1376.29 259.787 1386.36C242.38 1396.42 173.563 1370.69 156.18 1350.48C139.814 1331.45 110.373 1296.67 125.43 1257.35C127.318 1252.42 131.171 1248.45 136.075 1246.5C176.611 1230.37 215.268 1266.49 231.667 1285.56Z" fill="#78B0FE"/>
<g filter="url(#filter1_f_4400_3337)">
<path d="M468.272 1640.73C468.272 1651.93 401.698 1661.01 319.575 1661.01C237.452 1661.01 170.878 1651.93 170.878 1640.73C170.878 1629.53 237.452 1620.46 319.575 1620.46C401.698 1620.46 468.272 1629.53 468.272 1640.73Z" fill="#BDD6FB" fill-opacity="0.86"/>
</g>
<path d="M215.6 1497.11H423.279C423.279 1497.11 428.344 1645.81 363.339 1645.81C339.7 1645.81 305.087 1645.81 270.474 1645.81C211.378 1645.81 215.6 1497.11 215.6 1497.11Z" fill="url(#paint6_linear_4400_3337)"/>
<path d="M423.358 1497.11C423.358 1508.94 376.832 1524.14 319.439 1524.14C262.046 1524.14 215.521 1508.09 215.521 1497.11C215.521 1490.58 262.046 1474.3 319.439 1474.3C376.832 1474.3 423.358 1490.58 423.358 1497.11Z" fill="#C9DDFD"/>
<path d="M404.771 1500.49C404.771 1504.71 366.945 1511.47 320.284 1511.47C273.623 1511.47 235.797 1505.56 235.797 1500.49C235.797 1499.09 235.797 1483.59 320.284 1483.59C404.771 1483.59 404.771 1499.09 404.771 1500.49Z" fill="#358FFE"/>
<path d="M342.25 1418.54L329.577 1475.99L331.416 1511.36L316.972 1511.47L302.603 1511.15L302.542 1475.99L269.592 1403.33L202.002 1325.6L185.105 1312.08L190.174 1306.17L207.072 1315.46L279.73 1396.57L315.215 1468.38L305.076 1306.17L269.592 1135.5L276.351 1132.12L317.749 1306.17L326.198 1429.52L362.527 1332.36L398.856 1275.75L440.255 1225.06L445.324 1227.6L406.46 1281.67L372.666 1339.96L342.25 1418.54Z" fill="#2182FD"/>
<defs>
<filter id="filter0_d_4400_3337" x="1120.34" y="684.17" width="608.648" height="796.209" filterUnits="userSpaceOnUse" color-interpolation-filters="sRGB">
<feFlood flood-opacity="0" result="BackgroundImageFix"/>
<feColorMatrix in="SourceAlpha" type="matrix" values="0 0 0 0 0 0 0 0 0 0 0 0 0 0 0 0 0 0 127 0" result="hardAlpha"/>
<feOffset/>
<feGaussianBlur stdDeviation="6"/>
<feComposite in2="hardAlpha" operator="out"/>
<feColorMatrix type="matrix" values="0 0 0 0 0.180392 0 0 0 0 0.537255 0 0 0 0 0.992157 0 0 0 1 0"/>
<feBlend mode="normal" in2="BackgroundImageFix" result="effect1_dropShadow_4400_3337"/>
<feBlend mode="normal" in="SourceGraphic" in2="effect1_dropShadow_4400_3337" result="shape"/>
</filter>
<filter id="filter1_f_4400_3337" x="161.578" y="1611.16" width="315.993" height="59.1527" filterUnits="userSpaceOnUse" color-interpolation-filters="sRGB">
<feFlood flood-opacity="0" result="BackgroundImageFix"/>
<feBlend mode="normal" in="SourceGraphic" in2="BackgroundImageFix" result="shape"/>
<feGaussianBlur stdDeviation="4.65" result="effect1_foregroundBlur_4400_3337"/>
</filter>
<linearGradient id="paint0_linear_4400_3337" x1="875.498" y1="0" x2="875.498" y2="376.811" gradientUnits="userSpaceOnUse">
<stop stop-color="#D8E7FC"/>
<stop offset="1" stop-color="#F6F9FE"/>
</linearGradient>
<linearGradient id="paint1_linear_4400_3337" x1="850.152" y1="958.079" x2="850.152" y2="1880.67" gradientUnits="userSpaceOnUse">
<stop stop-color="#CADFFD"/>
<stop offset="1" stop-color="#F6F9FE"/>
</linearGradient>
<linearGradient id="paint2_linear_4400_3337" x1="1323.28" y1="931.888" x2="1323.28" y2="1780.98" gradientUnits="userSpaceOnUse">
<stop stop-color="#6DACFE"/>
<stop offset="1" stop-color="#F6F9FE"/>
</linearGradient>
<linearGradient id="paint3_linear_4400_3337" x1="678.644" y1="953.011" x2="678.644" y2="1249.56" gradientUnits="userSpaceOnUse">
<stop stop-color="#C0D9FC"/>
<stop offset="1" stop-color="#E0ECFD"/>
</linearGradient>
<linearGradient id="paint4_linear_4400_3337" x1="872.963" y1="1024.82" x2="872.963" y2="1847.72" gradientUnits="userSpaceOnUse">
<stop stop-color="#B7D3FD"/>
<stop offset="1" stop-color="#F6F9FE"/>
</linearGradient>
<linearGradient id="paint5_linear_4400_3337" x1="925.345" y1="495.939" x2="925.345" y2="1668.62" gradientUnits="userSpaceOnUse">
<stop stop-color="#D1E3FD"/>
<stop offset="1" stop-color="#F6F9FE"/>
</linearGradient>
<linearGradient id="paint6_linear_4400_3337" x1="223.26" y1="1571.46" x2="415.045" y2="1620.46" gradientUnits="userSpaceOnUse">
<stop stop-color="#DBE9FD"/>
<stop offset="1" stop-color="#A4CAFD"/>
</linearGradient>
</defs>
</svg>
